<?xml version="1.0" standalone="no"?>
<!DOCTYPE svg PUBLIC "-//W3C//DTD SVG 20010904//EN"
 "http://www.w3.org/TR/2001/REC-SVG-20010904/DTD/svg10.dtd">
<svg version="1.0" xmlns="http://www.w3.org/2000/svg"
 width="512.000000pt" height="512.000000pt" viewBox="0 0 512.000000 512.000000"
 preserveAspectRatio="xMidYMid meet">

<g transform="translate(0.000000,512.000000) scale(0.100000,-0.100000)"
fill="#000000" stroke="none">
<path d="M3386 4844 c-273 -49 -554 -212 -726 -419 -283 -341 -370 -768 -243
-1188 l27 -88 -1076 -1077 c-1146 -1147 -1109 -1106 -1143 -1239 -20 -75 -19
-185 1 -254 91 -311 426 -457 717 -313 42 21 259 233 1129 1102 l1077 1076 68
-22 c183 -58 410 -77 588 -48 113 19 273 70 367 117 354 178 607 522 674 916
20 115 15 383 -7 447 -25 69 -98 99 -162 65 -14 -8 -196 -182 -405 -386 -209
-205 -384 -373 -388 -373 -5 0 -177 168 -381 373 l-373 372 386 375 c212 206
392 387 400 402 26 50 12 114 -32 142 -55 36 -344 48 -498 20z"/>
</g>
</svg>
